<?xml version="1.0" encoding="utf-8"?>
<!-- Generator: Adobe Illustrator 26.5.0, SVG Export Plug-In . SVG Version: 6.00 Build 0)  -->
<svg version="1.1" id="Ebene_1" xmlns="http://www.w3.org/2000/svg" x="0px" y="0px"
     viewBox="0 0 1080 1080" style="enable-background:new 0 0 1080 1080;" xml:space="preserve">
<style type="text/css">
	.st0{fill:none;stroke:#FDFDFD;stroke-miterlimit:10;}
</style>
<line class="st0" x1="737.87" y1="229.3" x2="723.73" y2="251.61"/>
<line class="st0" x1="722.8" y1="220.74" x2="709.95" y2="243.82"/>
<line class="st0" x1="706.46" y1="212.2" x2="695.53" y2="236.24"/>
<line class="st0" x1="753.9" y1="239.49" x2="738.66" y2="261.06"/>
<line class="st0" x1="769.46" y1="249.39" x2="752.88" y2="269.95"/>
<line class="st0" x1="783.83" y1="260.99" x2="766.75" y2="281.13"/>
<line class="st0" x1="798.01" y1="273.02" x2="779.79" y2="292.14"/>
<line class="st0" x1="810.26" y1="285.02" x2="792.03" y2="304.13"/>
<line class="st0" x1="823.16" y1="298.57" x2="803.59" y2="316.3"/>
<line class="st0" x1="835.79" y1="313.18" x2="814.48" y2="328.78"/>
<line class="st0" x1="846.45" y1="327.02" x2="825.14" y2="342.61"/>
<line class="st0" x1="857.56" y1="342.59" x2="835.45" y2="357.05"/>
<line class="st0" x1="893.94" y1="417.59" x2="868.69" y2="425.33"/>
<line class="st0" x1="888.06" y1="401.29" x2="863.29" y2="410.45"/>
<line class="st0" x1="881.21" y1="384.17" x2="857.27" y2="395.32"/>
<line class="st0" x1="899.49" y1="435.75" x2="873.88" y2="442.22"/>
<line class="st0" x1="904.86" y1="453.4" x2="878.9" y2="458.22"/>
<line class="st0" x1="908.23" y1="471.55" x2="882.16" y2="475.74"/>
<line class="st0" x1="911.18" y1="489.92" x2="884.9" y2="492.58"/>
<line class="st0" x1="912.68" y1="506.99" x2="886.4" y2="509.66"/>
<line class="st0" x1="913.66" y1="525.68" x2="887.26" y2="526.42"/>
<line class="st0" x1="913.75" y1="545" x2="887.41" y2="542.98"/>
<line class="st0" x1="912.85" y1="562.44" x2="886.51" y2="560.42"/>
<line class="st0" x1="911.15" y1="581.49" x2="884.96" y2="578.1"/>
<line class="st0" x1="250.1" y1="339.57" x2="271.44" y2="355.13"/>
<line class="st0" x1="240.58" y1="354.04" x2="262.77" y2="368.37"/>
<line class="st0" x1="230.99" y1="369.79" x2="254.27" y2="382.27"/>
<line class="st0" x1="261.32" y1="324.24" x2="281.84" y2="340.86"/>
<line class="st0" x1="272.22" y1="309.36" x2="291.65" y2="327.25"/>
<line class="st0" x1="284.73" y1="295.77" x2="303.71" y2="314.14"/>
<line class="st0" x1="297.66" y1="282.41" x2="315.54" y2="301.84"/>
<line class="st0" x1="310.43" y1="270.97" x2="328.31" y2="290.4"/>
<line class="st0" x1="324.79" y1="258.99" x2="341.21" y2="279.67"/>
<line class="st0" x1="340.2" y1="247.33" x2="354.37" y2="269.62"/>
<line class="st0" x1="354.7" y1="237.6" x2="368.87" y2="259.88"/>
<line class="st0" x1="370.97" y1="227.53" x2="383.96" y2="250.53"/>
<line class="st0" x1="386.35" y1="219.3" x2="399.34" y2="242.3"/>
<line class="st0" x1="892.85" y1="664.83" x2="868.44" y2="654.74"/>
<line class="st0" x1="898.68" y1="648.51" x2="873.74" y2="639.83"/>
<line class="st0" x1="903.62" y1="630.95" x2="878.05" y2="624.32"/>
<line class="st0" x1="885.57" y1="682.37" x2="861.7" y2="671.07"/>
<line class="st0" x1="878.5" y1="699.41" x2="855.39" y2="686.61"/>
<line class="st0" x1="869.55" y1="715.56" x2="846.76" y2="702.2"/>
<line class="st0" x1="860.14" y1="731.6" x2="838.17" y2="716.94"/>
<line class="st0" x1="850.43" y1="745.73" x2="828.46" y2="731.07"/>
<line class="st0" x1="839.3" y1="760.77" x2="818.46" y2="744.55"/>
<line class="st0" x1="827.08" y1="775.73" x2="808.05" y2="757.43"/>
<line class="st0" x1="815.29" y1="788.62" x2="796.26" y2="770.31"/>
<line class="st0" x1="801.86" y1="802.24" x2="783.81" y2="782.96"/>
<line class="st0" x1="788.86" y1="813.87" x2="770.81" y2="794.59"/>
<line class="st0" x1="718.08" y1="862.19" x2="707.01" y2="838.2"/>
<line class="st0" x1="733.44" y1="854.17" x2="721.03" y2="830.86"/>
<line class="st0" x1="750.14" y1="844.42" x2="735.88" y2="822.19"/>
<line class="st0" x1="700.82" y1="870.12" x2="690.97" y2="845.61"/>
<line class="st0" x1="684.06" y1="877.82" x2="675.79" y2="852.73"/>
<line class="st0" x1="666.52" y1="883.6" x2="658.87" y2="858.32"/>
<line class="st0" x1="648.72" y1="888.98" x2="642.55" y2="863.3"/>
<line class="st0" x1="632" y1="892.76" x2="625.83" y2="867.08"/>
<line class="st0" x1="613.61" y1="896.24" x2="609.33" y2="870.17"/>
<line class="st0" x1="594.49" y1="899.58" x2="592.96" y2="873.21"/>
<line class="st0" x1="577.08" y1="900.37" x2="575.54" y2="874"/>
<line class="st0" x1="557.98" y1="901.9" x2="557.83" y2="875.49"/>
<line class="st0" x1="540.53" y1="901.61" x2="540.38" y2="875.2"/>
<circle class="st0" cx="552.64" cy="539.18" r="362.5"/>
<ellipse class="st0" cx="542.2" cy="532.88" rx="205.3" ry="201.33"/>
<polyline class="st0" points="938.88,331.55 544.43,533.31 115.71,601.57 "/>
<polyline class="st0" points="713.22,127.85 543.99,533.06 246.65,852.31 "/>
<polyline class="st0" points="377.26,134.01 544.19,532.83 520.95,974.08 "/>
<polyline class="st0" points="151.32,355.13 544.43,533.31 819.29,889.89 "/>
<line class="st0" x1="983.55" y1="624.32" x2="543.99" y2="533.06"/>
<line class="st0" x1="470.71" y1="186.85" x2="475.29" y2="212.86"/>
<line class="st0" x1="453.81" y1="190.68" x2="459.86" y2="216.39"/>
<line class="st0" x1="432.67" y1="196.69" x2="440.79" y2="221.83"/>
<line class="st0" x1="489.42" y1="182.92" x2="492.69" y2="209.13"/>
<line class="st0" x1="508.26" y1="179.76" x2="509.85" y2="206.12"/>
<line class="st0" x1="526.03" y1="179.31" x2="526.97" y2="205.7"/>
<line class="st0" x1="544.61" y1="177.98" x2="544.02" y2="204.39"/>
<line class="st0" x1="561.74" y1="178.6" x2="561.15" y2="205"/>
<line class="st0" x1="580.41" y1="179.26" x2="577.89" y2="205.56"/>
<line class="st0" x1="599.86" y1="180.76" x2="596.18" y2="206.91"/>
<line class="st0" x1="619.89" y1="183.27" x2="614.64" y2="209.16"/>
<line class="st0" x1="641.27" y1="187.07" x2="634.67" y2="212.64"/>
<line class="st0" x1="658.89" y1="192.88" x2="652.29" y2="218.45"/>
<circle class="st0" cx="552.39" cy="538.97" r="441.09"/>
<line class="st0" x1="467.7" y1="889.52" x2="475.02" y2="864.15"/>
<line class="st0" x1="484.56" y1="893.52" x2="490.43" y2="867.77"/>
<line class="st0" x1="502.64" y1="897.14" x2="506.4" y2="871"/>
<line class="st0" x1="449.46" y1="884.23" x2="458.05" y2="859.26"/>
<line class="st0" x1="431.75" y1="879.08" x2="441.91" y2="854.7"/>
<line class="st0" x1="414.7" y1="871.97" x2="425.46" y2="847.85"/>
<line class="st0" x1="397.72" y1="864.4" x2="409.86" y2="840.94"/>
<line class="st0" x1="382.6" y1="856.31" x2="394.74" y2="832.85"/>
<line class="st0" x1="366.43" y1="846.91" x2="380.25" y2="824.4"/>
<line class="st0" x1="350.2" y1="836.42" x2="366.3" y2="815.48"/>
<line class="st0" x1="336.1" y1="826.12" x2="352.19" y2="805.18"/>
<line class="st0" x1="321.07" y1="814.28" x2="338.24" y2="794.21"/>
<line class="st0" x1="308.07" y1="803.97" x2="325.24" y2="783.9"/>
<line class="st0" x1="264.12" y1="755.44" x2="285.28" y2="739.63"/>
<line class="st0" x1="275.15" y1="768.8" x2="295.38" y2="751.82"/>
<line class="st0" x1="287.37" y1="782.6" x2="306.15" y2="764.03"/>
<line class="st0" x1="252.77" y1="740.2" x2="274.7" y2="725.48"/>
<line class="st0" x1="241.76" y1="725.4" x2="264.58" y2="712.11"/>
<line class="st0" x1="232.47" y1="709.45" x2="255.61" y2="696.72"/>
<line class="st0" x1="223.5" y1="693.16" x2="247.34" y2="681.79"/>
<line class="st0" x1="216.33" y1="677.58" x2="240.17" y2="666.21"/>
<line class="st0" x1="209.77" y1="660.32" x2="234.38" y2="650.73"/>
<line class="st0" x1="203.84" y1="642.17" x2="229.31" y2="635.19"/>
<line class="st0" x1="200.13" y1="625.44" x2="225.6" y2="618.46"/>
<line class="st0" x1="195.97" y1="606.93" x2="221.77" y2="601.3"/>
<line class="st0" x1="192.84" y1="567.29" x2="219.22" y2="566.14"/>
<line class="st0" x1="191.14" y1="548.92" x2="217.55" y2="549.45"/>
<line class="st0" x1="191.52" y1="530.46" x2="217.9" y2="531.64"/>
<line class="st0" x1="192.35" y1="511.88" x2="218.62" y2="514.59"/>
<line class="st0" x1="194.34" y1="494.85" x2="220.61" y2="497.56"/>
<line class="st0" x1="197.17" y1="476.36" x2="223.17" y2="480.98"/>
<line class="st0" x1="200.99" y1="457.42" x2="226.37" y2="464.73"/>
<line class="st0" x1="205.4" y1="440.52" x2="230.78" y2="447.83"/>
<line class="st0" x1="210.93" y1="422.21" x2="235.89" y2="430.83"/>
<line class="st0" x1="217" y1="405.85" x2="241.96" y2="414.48"/>
</svg>
