<svg xmlns="http://www.w3.org/2000/svg" width="556.201" height="79" viewBox="0 0 556.201 79">
  <g id="Gruppe_21728" data-name="Gruppe 21728" transform="translate(-682.899 -920)">
    <rect id="Rechteck_8493" data-name="Rechteck 8493" width="422" height="3" transform="translate(749 935)" fill="#fff"/>
    <text id="_2022" data-name="2022" transform="translate(953 960)" fill="#fff" font-size="20" font-family="Roboto-Bold, Roboto" font-weight="700"><tspan x="19.051" y="21">2022</tspan></text>
    <text id="_2018" data-name="2018" transform="translate(707 960)" fill="#9f9f9f" font-size="20" font-family="Roboto-Regular, Roboto"><tspan x="19.539" y="21">2018</tspan></text>
    <text id="Future" transform="translate(1129 960)" fill="#9f9f9f" font-size="20" font-family="Roboto-Regular, Roboto"><tspan x="13.606" y="21">Future</tspan></text>
    <rect id="Rechteck_8494" data-name="Rechteck 8494" width="3" height="23" transform="translate(749 935)" fill="#fff"/>
    <rect id="Rechteck_8496" data-name="Rechteck 8496" width="3" height="23" transform="translate(810 935)" fill="#fff"/>
    <rect id="Rechteck_8497" data-name="Rechteck 8497" width="3" height="23" transform="translate(871 935)" fill="#fff"/>
    <rect id="Rechteck_8498" data-name="Rechteck 8498" width="3" height="23" transform="translate(932 935)" fill="#fff"/>
    <rect id="Rechteck_8501" data-name="Rechteck 8501" width="3" height="23" transform="translate(1051 935)" fill="#fff"/>
    <rect id="Rechteck_8502" data-name="Rechteck 8502" width="3" height="23" transform="translate(1112 935)" fill="#fff"/>
    <rect id="Rechteck_8499" data-name="Rechteck 8499" width="3" height="23" transform="translate(993 935)" fill="#fff"/>
    <rect id="Rechteck_8495" data-name="Rechteck 8495" width="3" height="23" transform="translate(1168 935)" fill="#fff"/>
<!--    <rect id="Rechteck_8500" data-name="Rechteck 8500" width="10" height="39" transform="translate(990 920)" fill="#ba924b"/>-->
    <path id="Pfad_7679" data-name="Pfad 7679" d="M274.05,658.122l-13.1,13.1,13.1,13.1Z" transform="translate(421.95 276.878)" fill="#c89a52"/>
    <path id="Pfad_7680" data-name="Pfad 7680" d="M274.05,658.122l-13.1,13.1,13.1,13.1Z" transform="translate(1500.05 1619.323) rotate(180)" fill="#c89a52"/>
  </g>
</svg>
